<svg width="50" height="50" viewBox="0 0 50 50" fill="none" xmlns="http://www.w3.org/2000/svg">
<g clip-path="url(#clip0)">
<path d="M27.8031 3.13064L28.0766 3.38689L48.5016 23.4525L46.3109 25.6806L43.4984 22.9181L43.5 44.0978C43.4999 44.886 43.2019 45.6449 42.6659 46.2227C42.1298 46.8005 41.3953 47.1543 40.6094 47.2134L40.375 47.2228H9.125C8.3366 47.2231 7.57724 46.9253 6.99914 46.3892C6.42105 45.8532 6.06694 45.1184 6.00781 44.3322L6 44.0978V22.9197L3.1875 25.6806L1 23.4525L21.4 3.4072C22.2327 2.55723 23.3574 2.05573 24.5461 2.00437C25.7349 1.95302 26.8987 2.35565 27.8016 3.13064H27.8031ZM23.7625 5.47907L23.6125 5.61658L9.125 19.8478V44.0978L16.9375 44.0963V28.4728C16.9373 27.6844 17.235 26.9251 17.7711 26.347C18.3072 25.7689 19.0419 25.4148 19.8281 25.3556L20.0625 25.3478H29.4375C30.2259 25.3476 30.9853 25.6453 31.5634 26.1814C32.1415 26.7175 32.4956 27.4523 32.5547 28.2384L32.5625 28.4728V44.0963H40.375V19.8478L25.8438 5.57439C25.5689 5.30584 25.2049 5.14785 24.821 5.13055C24.4371 5.11326 24.0604 5.23788 23.7625 5.48064V5.47907ZM29.4375 28.4728H20.0625V44.0963H29.4375V28.4728Z" fill="#4A68F6"/>
<path d="M10.4907 20.5001H18.2003C18.4894 21.46 18.6689 22.364 18.7346 23.1315C18.4058 23.1715 18.0674 23.2486 17.7209 23.372L17.7208 23.372C16.7752 23.7087 16.1884 23.9092 15.6301 23.9788C15.1408 24.0398 14.6362 24.0012 13.9313 23.7247C13.7631 23.6586 13.5227 23.4947 13.1705 23.1399C12.937 22.9047 12.7348 22.6735 12.5021 22.4074C12.3613 22.2464 12.2093 22.0725 12.0323 21.8772C11.6596 21.4658 11.1478 20.92 10.4907 20.5001ZM3.65909 17.1849C2.8609 19.1848 2.20187 21.6289 2.23773 23.9649L2.23915 24.0125C2.35275 28.8468 5.69077 33.0852 10.4954 34.2282V41.9196C9.3026 42.1372 8.24058 42.4903 7.39414 42.8894C6.81882 43.1606 6.29501 43.4757 5.8883 43.8214C5.68601 43.9934 5.47462 44.205 5.30296 44.4575C5.14155 44.6949 4.93356 45.0888 4.93356 45.5937C4.93356 46.1983 5.22601 46.645 5.48171 46.9129C5.73116 47.1743 6.02397 47.3541 6.27115 47.4794C6.77011 47.7323 7.39433 47.9165 8.04132 48.0551C9.35986 48.3376 11.1108 48.5 12.996 48.5C14.8811 48.5 16.6321 48.3376 17.9507 48.0551C18.5977 47.9165 19.2219 47.7323 19.7209 47.4794C19.9681 47.3541 20.2609 47.1743 20.5104 46.913C20.7661 46.645 21.0586 46.1984 21.0586 45.5937C21.0586 45.0887 20.8505 44.6947 20.6891 44.4573C20.5174 44.2048 20.3059 43.9932 20.1036 43.8213C19.6968 43.4755 19.1729 43.1605 18.5975 42.8892C17.7509 42.4901 16.6887 42.137 15.4956 41.9195V34.2253C20.3893 33.0519 23.7631 28.6853 23.7631 23.7574C23.7631 21.7708 23.2203 19.409 22.3325 17.1848C21.9265 16.167 20.9408 15.5 19.8462 15.5H6.14548C5.051 15.5 4.06507 16.1667 3.65909 17.1849Z" fill="#4A68F6" stroke="white" stroke-width="3"/>
<rect x="5" y="33" width="5" height="10" fill="white"/>
<rect x="16" y="33" width="5" height="10" fill="white"/>
<rect x="13" y="21" width="5" height="2" fill="white"/>
</g>
<defs>
<clipPath id="clip0">
<rect width="50" height="50" fill="white"/>
</clipPath>
</defs>
</svg>
