<svg width="16" height="12" viewBox="0 0 16 12" fill="none" xmlns="http://www.w3.org/2000/svg">
<path d="M7.5 2C7.5 2.53043 7.28929 3.03914 6.91421 3.41421C6.53914 3.78929 6.03043 4 5.5 4C4.96957 4 4.46086 3.78929 4.08579 3.41421C3.71071 3.03914 3.5 2.53043 3.5 2C3.5 1.46957 3.71071 0.960859 4.08579 0.585786C4.46086 0.210714 4.96957 0 5.5 0C6.03043 0 6.53914 0.210714 6.91421 0.585786C7.28929 0.960859 7.5 1.46957 7.5 2ZM10.5 4C11.0304 4 11.5391 3.78929 11.9142 3.41421C12.2893 3.03914 12.5 2.53043 12.5 2C12.5 1.46957 12.2893 0.960859 11.9142 0.585786C11.5391 0.210714 11.0304 0 10.5 0C9.96957 0 9.46086 0.210714 9.08579 0.585786C8.71071 0.960859 8.5 1.46957 8.5 2C8.5 2.53043 8.71071 3.03914 9.08579 3.41421C9.46086 3.78929 9.96957 4 10.5 4ZM15.5 6C15.5 5.46957 15.2893 4.96086 14.9142 4.58579C14.5391 4.21071 14.0304 4 13.5 4C12.9696 4 12.4609 4.21071 12.0858 4.58579C11.7107 4.96086 11.5 5.46957 11.5 6C11.5 6.53043 11.7107 7.03914 12.0858 7.41421C12.4609 7.78929 12.9696 8 13.5 8C14.0304 8 14.5391 7.78929 14.9142 7.41421C15.2893 7.03914 15.5 6.53043 15.5 6ZM0.5 6C0.5 6.53043 0.710714 7.03914 1.08579 7.41421C1.46086 7.78929 1.96957 8 2.5 8C3.03043 8 3.53914 7.78929 3.91421 7.41421C4.28929 7.03914 4.5 6.53043 4.5 6C4.5 5.46957 4.28929 4.96086 3.91421 4.58579C3.53914 4.21071 3.03043 4 2.5 4C1.96957 4 1.46086 4.21071 1.08579 4.58579C0.710714 4.96086 0.5 5.46957 0.5 6ZM4.4625 11.6125L4.561 11.6775C4.79326 11.8218 5.05264 11.9169 5.32311 11.9569C5.59357 11.997 5.86938 11.9812 6.1335 11.9105L8 11.41L9.8665 11.9105C10.2635 12.0168 10.6837 11.9982 11.0698 11.8573C11.4559 11.7163 11.7892 11.4598 12.0243 11.1226C12.2594 10.7855 12.385 10.3841 12.3839 9.97307C12.3827 9.56204 12.255 9.16134 12.018 8.8255L9.634 5.4475C9.33871 5.02915 8.8942 4.74 8.39206 4.63963C7.88993 4.53926 7.36842 4.63531 6.935 4.908L6.8465 4.967C6.66028 5.09863 6.49794 5.26114 6.3665 5.4475L3.9815 8.825C3.83003 9.0396 3.72232 9.28194 3.66451 9.53818C3.60671 9.79442 3.59995 10.0595 3.64461 10.3184C3.68928 10.5772 3.7845 10.8247 3.92483 11.0468C4.06517 11.2688 4.24787 11.4611 4.4625 11.6125Z" fill="#4A68F6"/>
</svg>
