<svg width="43" height="30" viewBox="0 0 43 30" fill="none" xmlns="http://www.w3.org/2000/svg">
<path d="M6.61719 12.6133H9.50781C10.9661 12.6003 12.1185 12.2227 12.9648 11.4805C13.8242 10.7383 14.2539 9.66406 14.2539 8.25781C14.2539 6.90365 13.8958 5.85547 13.1797 5.11328C12.4766 4.35807 11.3958 3.98047 9.9375 3.98047C8.66146 3.98047 7.61328 4.35156 6.79297 5.09375C5.97266 5.82292 5.5625 6.77995 5.5625 7.96484H0.816406C0.816406 6.50651 1.20052 5.17839 1.96875 3.98047C2.75 2.78255 3.83073 1.85156 5.21094 1.1875C6.60417 0.510417 8.16016 0.171875 9.87891 0.171875C12.7174 0.171875 14.944 0.888021 16.5586 2.32031C18.1862 3.73958 19 5.71875 19 8.25781C19 9.53385 18.5898 10.7383 17.7695 11.8711C16.9622 12.9909 15.9141 13.8372 14.625 14.4102C16.1875 14.944 17.3724 15.7839 18.1797 16.9297C19 18.0755 19.4102 19.4427 19.4102 21.0312C19.4102 23.5833 18.5312 25.6146 16.7734 27.125C15.0286 28.6354 12.7305 29.3906 9.87891 29.3906C7.14453 29.3906 4.90495 28.6615 3.16016 27.2031C1.41536 25.7448 0.542969 23.8047 0.542969 21.3828H5.28906C5.28906 22.6328 5.70573 23.6484 6.53906 24.4297C7.38542 25.2109 8.51823 25.6016 9.9375 25.6016C11.4089 25.6016 12.5677 25.2109 13.4141 24.4297C14.2604 23.6484 14.6836 22.5156 14.6836 21.0312C14.6836 19.5339 14.2409 18.3815 13.3555 17.5742C12.4701 16.7669 11.1549 16.3633 9.41016 16.3633H6.61719V12.6133ZM42.3984 17.0273C42.3984 21.1159 41.6302 24.2018 40.0938 26.2852C38.5703 28.3555 36.2461 29.3906 33.1211 29.3906C30.0482 29.3906 27.7305 28.3815 26.168 26.3633C24.6185 24.332 23.8242 21.3307 23.7852 17.3594V12.4375C23.7852 8.34896 24.5469 5.28255 26.0703 3.23828C27.6068 1.19401 29.944 0.171875 33.082 0.171875C36.194 0.171875 38.5117 1.16797 40.0352 3.16016C41.5716 5.15234 42.3594 8.13411 42.3984 12.1055V17.0273ZM37.6523 11.7148C37.6523 9.04557 37.2878 7.09245 36.5586 5.85547C35.8294 4.60547 34.6706 3.98047 33.082 3.98047C31.5326 3.98047 30.3932 4.57292 29.6641 5.75781C28.9349 6.92969 28.5508 8.76562 28.5117 11.2656V17.7109C28.5117 20.3672 28.8828 22.3464 29.625 23.6484C30.3672 24.9505 31.5326 25.6016 33.1211 25.6016C34.6445 25.6016 35.7708 25.0026 36.5 23.8047C37.2292 22.5938 37.6133 20.7057 37.6523 18.1406V11.7148Z" fill="#4A68F6"/>
</svg>
