<svg width="16" height="15" viewBox="0 0 16 15" fill="none" xmlns="http://www.w3.org/2000/svg">
<path d="M7.51837 1.15725C7.66804 0.696595 8.31975 0.696595 8.46942 1.15725L9.78886 5.21805C9.85579 5.42406 10.0478 5.56354 10.2644 5.56354H14.5342C15.0185 5.56354 15.2199 6.18335 14.828 6.46805L11.3737 8.97776C11.1985 9.10508 11.1252 9.33076 11.1921 9.53677L12.5115 13.5976C12.6612 14.0582 12.134 14.4413 11.7421 14.1566L8.28779 11.6469C8.11254 11.5196 7.87525 11.5196 7.7 11.6469L4.24568 14.1566C3.85383 14.4413 3.32659 14.0582 3.47626 13.5976L4.7957 9.53677C4.86263 9.33076 4.7893 9.10508 4.61406 8.97776L1.15974 6.46805C0.767883 6.18334 0.969272 5.56354 1.45363 5.56354H5.72341C5.94002 5.56354 6.132 5.42406 6.19894 5.21805L7.51837 1.15725Z" fill="#B0B0B0"/>
</svg>
