<svg width="20" height="20" viewBox="0 0 20 20" fill="none" xmlns="http://www.w3.org/2000/svg">
<g clip-path="url(#clip0)">
<path fill-rule="evenodd" clip-rule="evenodd" d="M20 10C20 4.4775 15.5225 0 10 0C4.4775 0 0 4.4775 0 10C0 14.9917 3.65667 19.1283 8.4375 19.8783V12.8917H5.89833V10H8.4375V7.79667C8.4375 5.29083 9.93083 3.90667 12.215 3.90667C13.3083 3.90667 14.4533 4.10167 14.4533 4.10167V6.5625H13.1917C11.9492 6.5625 11.5617 7.33333 11.5617 8.12417V10H14.335L13.8917 12.8908H11.5617V19.8783C16.3433 19.1283 20 14.9917 20 10Z" fill="#1877F2"/>
<path fill-rule="evenodd" clip-rule="evenodd" d="M13.8926 12.8908L14.3359 9.99995H11.5626V8.12411C11.5626 7.33328 11.9501 6.56245 13.1926 6.56245H14.4534V4.10162C14.4534 4.10162 13.3084 3.90662 12.2151 3.90662C9.93094 3.90662 8.4376 5.28995 8.4376 7.79662V9.99995H5.89844V12.8908H8.4376V19.8783C9.47293 20.0408 10.5273 20.0408 11.5626 19.8783V12.8916H13.8926" fill="white"/>
</g>
<defs>
<clipPath id="clip0">
<rect width="20" height="20" fill="white"/>
</clipPath>
</defs>
</svg>
