<svg width="20" height="20" viewBox="0 0 20 20" fill="none" xmlns="http://www.w3.org/2000/svg">
<path fill-rule="evenodd" clip-rule="evenodd" d="M10.0002 3.86667C11.878 3.86667 13.1447 4.67778 13.8669 5.35556L16.6891 2.6C14.9558 0.988889 12.7002 0 10.0002 0C6.08912 0 2.71134 2.24444 1.06689 5.51111L4.30023 8.02222C5.11134 5.61111 7.35578 3.86667 10.0002 3.86667Z" fill="#EA4335"/>
<path fill-rule="evenodd" clip-rule="evenodd" d="M19.6 10.2222C19.6 9.39996 19.5333 8.79996 19.3889 8.17773H10V11.8888H15.5111C15.4 12.8111 14.8 14.2 13.4667 15.1333L16.6222 17.5777C18.5111 15.8333 19.6 13.2666 19.6 10.2222Z" fill="#4285F4"/>
<path fill-rule="evenodd" clip-rule="evenodd" d="M4.31111 11.9778C4.09262 11.3412 3.98002 10.673 3.97778 10C3.97778 9.31111 4.1 8.64444 4.3 8.02222L1.06667 5.51111C0.366377 6.90392 0.0011171 8.44105 0 10C0 11.6111 0.388889 13.1333 1.06667 14.4889L4.31111 11.9778Z" fill="#FBBC05"/>
<path fill-rule="evenodd" clip-rule="evenodd" d="M9.99986 20C12.6999 20 14.9665 19.1111 16.6221 17.5778L13.4665 15.1333C12.6221 15.7222 11.4887 16.1333 9.99986 16.1333C7.35541 16.1333 5.11097 14.3889 4.31097 11.9778L1.07764 14.4889C2.72208 17.7556 6.08875 20 9.99986 20Z" fill="#34A853"/>
</svg>
