<svg width="50" height="50" viewBox="0 0 50 50" fill="none" xmlns="http://www.w3.org/2000/svg">
<path d="M27.7304 4.74769L27.7304 4.7477L29.4282 6.4157L29.7849 6.7661L30.1353 6.40943L32.8261 9.05289L32.4757 9.40957L32.8324 9.75997L36.2366 13.1042L36.5933 13.4546L36.9437 13.098L39.6345 15.7414L39.2841 16.0981L39.6407 16.4485L43.0449 19.7928L43.4016 20.1432L43.752 19.7865L46.4428 22.43L46.0924 22.7867L46.4491 23.1371L47.7943 24.4587L47.5974 24.659L47.2468 25.0155L47.6034 25.3661L47.2091 25.7671L46.8526 25.4165L46.5021 25.7731L46.3048 25.9737L45.9582 25.6333L45.6015 25.2829L45.2511 25.6396L44.5583 24.9591L44.9086 24.6024L44.5519 24.252L43.8488 23.5614C43.7051 23.4203 43.4907 23.3791 43.305 23.4571C43.1193 23.535 42.9984 23.7167 42.9984 23.9182L42.9986 26.5656L42.9987 27.0656L43.4987 27.0656L43.499 31.3605L42.999 31.3606L42.999 31.8606L42.9994 37.1555L42.9995 37.6555L43.4995 37.6554L43.4998 41.9504L42.9998 41.9504L42.9998 42.4504L43 45.0977C43 45.0977 43 45.0978 43 45.0978C43 45.0978 43 45.0978 43 45.0979C43 45.2626 42.9844 45.4259 42.9542 45.5856L42.8618 46.0734L42.5976 46.4939C42.5111 46.6316 42.4114 46.7618 42.2993 46.8826C42.1872 47.0034 42.0648 47.1126 41.934 47.2092L41.5345 47.504L41.0549 47.6327C40.9005 47.6741 40.7417 47.7015 40.5802 47.7142L40.5308 47.7162L40.4136 47.7209L40.365 47.7228H37.7708H37.2708V48.2228H33.0625V47.7228H32.5625H27.3542H26.8542V48.2228H22.6458V47.7228H22.1458H16.9375H16.4375V48.2228H12.2292V47.7228H11.7292H9.125H9.12484C8.95997 47.7229 8.79664 47.7074 8.6368 47.6772L8.14873 47.585L7.72808 47.3209C7.59032 47.2344 7.46002 47.1347 7.33912 47.0226C7.21823 46.9105 7.10902 46.7881 7.01239 46.6572L6.71733 46.2577L6.58863 45.7779C6.54734 45.624 6.5199 45.4656 6.50717 45.3046L6.50558 45.2569L6.50168 45.1398L6.5 45.0895V42.4506V41.9506H6V37.656H6.5V37.156V31.8615V31.3615H6V27.067H6.5V26.567V23.9197C6.5 23.7183 6.37918 23.5366 6.19348 23.4586C6.00778 23.3807 5.79345 23.4218 5.64973 23.5629L4.94661 24.2531L4.5898 24.6034L4.94007 24.9602L4.24743 25.6401L3.89717 25.2833L3.54036 25.6336L3.19402 25.9736L2.99742 25.7733L2.64713 25.4165L2.29034 25.7668L1.89716 25.3663L2.25395 25.016L1.90367 24.6593L1.70693 24.4589L3.05044 23.1387L3.40708 22.7883L3.05664 22.4316L5.74336 19.7916L6.0938 20.1483L6.45044 19.7978L9.85044 16.4569L10.2071 16.1065L9.85664 15.7499L12.5434 13.1099L12.8938 13.4665L13.2504 13.1161L16.6504 9.77517L17.0071 9.42473L16.6566 9.06809L19.3434 6.42808L19.6938 6.78472L20.0504 6.43428L21.7504 4.76384L21.7505 4.76391L21.7572 4.7571C21.9423 4.56808 22.1437 4.39838 22.358 4.24936L22.7685 3.96394L22.4983 3.57537C22.7212 3.45342 22.9537 3.34978 23.1933 3.26549L23.3018 3.72613L23.7885 3.61151C24.0426 3.55166 24.3034 3.51533 24.5677 3.50391C24.8321 3.49249 25.095 3.50619 25.3533 3.5439L25.8481 3.61613L25.9164 3.14784C26.1625 3.21115 26.403 3.29436 26.6356 3.39663L26.3999 3.80705L26.8335 4.05601C26.9961 4.14934 27.1529 4.25389 27.3027 4.36923V4.63064H27.6055L27.6663 4.68766L27.7304 4.74769ZM43.3129 46.1624C43.2942 46.2138 43.2742 46.2647 43.2529 46.3151L42.8792 46.0803L43.3129 46.1624ZM41.5426 47.5209L41.8048 47.876C41.7561 47.901 41.7068 47.9248 41.657 47.9472L41.5426 47.5209ZM8.06015 48.0362C8.0086 48.0175 7.95755 47.9975 7.90705 47.9761L8.14225 47.6016L8.06015 48.0362ZM6.70133 46.2654L6.34554 46.5281C6.32045 46.4794 6.29664 46.43 6.27414 46.38L6.70133 46.2654ZM23.7581 5.88325C23.7425 5.8918 23.727 5.90056 23.7117 5.90952L23.6807 5.87576L23.5667 5.98025H23.2625V6.25912L23.0186 6.48274L23.0265 6.49136L21.4512 8.03879L21.0945 8.38917L21.4449 8.74587L18.5364 11.6029L18.186 11.2462L17.8293 11.5966L14.2074 15.1544L13.8507 15.5048L14.2011 15.8615L11.2926 18.7185L10.9422 18.3618L10.5856 18.7122L8.77462 20.4911C8.67891 20.5851 8.625 20.7137 8.625 20.8478V23.8791V24.3791H9.125V29.4416H8.625V29.9416V36.0041V36.5041H9.125V41.5666H8.625V42.0666V45.0978C8.625 45.2304 8.67769 45.3576 8.77148 45.4514C8.86527 45.5452 8.99247 45.5978 9.1251 45.5978L11.0782 45.5974L11.5782 45.5973L11.5781 45.0973L14.4844 45.0967L14.4845 45.5967L14.9845 45.5966L16.9376 45.5963C17.2137 45.5962 17.4375 45.3724 17.4375 45.0963V43.1433V42.6433H16.9375V39.7375H17.4375V39.2375V35.3316V34.8316H16.9375V31.9258H17.4375V31.4258V29.4728V29.4727C17.4374 29.3078 17.4529 29.1445 17.4831 28.9846L17.5753 28.4966L17.8394 28.0759C17.9259 27.9381 18.0256 27.8078 18.1377 27.6869C18.2498 27.566 18.3722 27.4568 18.5031 27.3602L18.9027 27.0651L19.3824 26.9365C19.5363 26.8952 19.6947 26.8677 19.8557 26.855L19.9034 26.8534L20.0206 26.8495L20.0708 26.8478H22.4062H22.9062V26.3478H26.5938V26.8478H27.0938H29.4375H29.4377C29.6025 26.8478 29.7659 26.8632 29.9257 26.8934L30.4138 26.9856L30.8344 27.2497C30.9722 27.3362 31.1025 27.4359 31.2234 27.548C31.3443 27.6601 31.4535 27.7826 31.5501 27.9134L31.8452 28.313L31.9739 28.7927C32.0152 28.9467 32.0426 29.105 32.0553 29.266L32.0569 29.3137L32.0608 29.4309L32.0625 29.4811V31.4258V31.9258H32.5625V34.8316H32.0625V35.3316V39.2375V39.7375H32.5625V42.6433H32.0625V43.1433V45.0963C32.0625 45.3724 32.2864 45.5963 32.5625 45.5963H34.5156H35.0156V45.0963H37.9219V45.5963H38.4219H40.375C40.6511 45.5963 40.875 45.3724 40.875 45.0963V42.0652V41.5652H40.375V36.5031H40.875V36.0031V29.941V29.441H40.375V24.3789H40.875V23.8789V20.8478C40.875 20.7137 40.8211 20.5851 40.7254 20.4911L38.909 18.7069L38.5523 18.3566L38.2019 18.7133L35.2825 15.8457L35.6329 15.489L35.2762 15.1386L31.6433 11.5702L31.2866 11.2198L30.9363 11.5766L28.0169 8.70894L28.3672 8.35224L28.0105 8.00186L26.1941 6.21768L26.1932 6.21678C26.1029 6.12855 26.0053 6.04935 25.9018 5.97981L25.6925 5.83915L25.7028 5.79467L25.5861 5.7677L25.4868 5.70095L25.4613 5.73884L25.2156 5.68202C25.0941 5.65393 24.9696 5.63674 24.8435 5.63106C24.7174 5.62538 24.5918 5.63131 24.4683 5.64836L24.2185 5.68286L24.1965 5.64283L24.0916 5.70038L23.973 5.71675L23.9793 5.76198L23.7581 5.88325ZM17.1242 28.408C17.1428 28.3564 17.1628 28.3054 17.1842 28.2549L17.5588 28.4901L17.1242 28.408ZM18.895 27.0491L18.6322 26.6934C18.681 26.6683 18.7304 26.6445 18.7804 26.622L18.895 27.0491ZM30.5024 26.5345C30.5539 26.5532 30.605 26.5732 30.6554 26.5945L30.4203 26.9691L30.5024 26.5345ZM31.8612 28.3053L32.217 28.0425C32.2421 28.0913 32.2659 28.1407 32.2884 28.1907L31.8612 28.3053ZM29.9375 29.4728C29.9375 29.1967 29.7136 28.9728 29.4375 28.9728H27.0938H26.5938V29.4728H22.9062V28.9728H22.4062H20.0625C19.7864 28.9728 19.5625 29.1967 19.5625 29.4728V31.4258V31.9258H20.0625V34.8316H19.5625V35.3316V39.2375V39.7375H20.0625V42.6433H19.5625V43.1433V45.0963C19.5625 45.3724 19.7864 45.5963 20.0625 45.5963H22.4062H22.9062V45.0963H26.5938V45.5963H27.0938H29.4375C29.7136 45.5963 29.9375 45.3724 29.9375 45.0963V43.1433V42.6433H29.4375V39.7375H29.9375V39.2375V35.3316V34.8316H29.4375V31.9258H29.9375V31.4258V29.4728Z" stroke="black" stroke-linecap="square" stroke-linejoin="round" stroke-dasharray="5 5"/>
<path d="M6.99914 47.3893C7.57724 47.9253 8.3366 48.2231 9.125 48.2228H24.5V45.0963H20.0625V29.4728H24.5V26.3478H20.0625L19.8281 26.3557C19.0419 26.4148 18.3072 26.7689 17.7711 27.347C17.235 27.9251 16.9373 28.6844 16.9375 29.4728V45.0963L9.125 45.0978V20.8478L23.6125 6.6166L23.7625 6.4791V6.48066C23.9887 6.29631 24.2604 6.1801 24.5461 6.14241V3.00439C23.3574 3.05575 22.2327 3.55726 21.4 4.40722L1 24.4525L3.1875 26.6807L6 23.9197V45.0978L6.00781 45.3322C6.06694 46.1184 6.42105 46.8532 6.99914 47.3893Z" fill="#4A68F6"/>
</svg>
