<svg width="20" height="20" viewBox="0 0 20 20" fill="none" xmlns="http://www.w3.org/2000/svg">
<g clip-path="url(#clip0)">
<path fill-rule="evenodd" clip-rule="evenodd" d="M18.75 3.33337H1.25C0.558333 3.33337 0 3.89171 0 4.59171V15.4167C0 16.1084 0.558333 16.6667 1.25 16.6667H18.7417C18.9072 16.6678 19.0713 16.636 19.2245 16.5732C19.3777 16.5103 19.5168 16.4177 19.6339 16.3006C19.751 16.1835 19.8436 16.0444 19.9065 15.8912C19.9693 15.7381 20.0011 15.5739 20 15.4084V4.59171C20 3.89171 19.4417 3.33337 18.75 3.33337ZM19.1667 15.1667L14.05 8.57504L19.1667 4.69171V15.175V15.1667ZM18.475 4.16671L10.4 10.3C10.1833 10.4667 9.8 10.4667 9.58333 10.3L1.525 4.16671H18.4833H18.475ZM0.833333 4.69171L5.95 8.58337L0.833333 15.15V4.69171ZM1.35833 15.8334L6.60833 9.08337L9.08333 10.9667C9.6 11.3584 10.3917 11.3584 10.9083 10.9667L13.3833 9.08337L18.625 15.8334H1.35833Z" fill="#4A68F6"/>
</g>
<defs>
<clipPath id="clip0">
<rect width="20" height="20" fill="white"/>
</clipPath>
</defs>
</svg>
