<svg width="15" height="15" viewBox="0 0 15 15" fill="none" xmlns="http://www.w3.org/2000/svg">
<path fill-rule="evenodd" clip-rule="evenodd" d="M7.5 0C3.35625 0 0 3.35625 0 7.5C0 11.6438 3.35625 15 7.5 15C11.6438 15 15 11.6438 15 7.5C15 3.35625 11.6438 0 7.5 0ZM7.5 14.375C3.70625 14.375 0.625 11.3 0.625 7.5C0.625 3.7 3.70625 0.625 7.5 0.625C11.2937 0.625 14.375 3.70625 14.375 7.5C14.375 11.2937 11.2937 14.375 7.5 14.375ZM10.4688 5.625C10.4688 6.75 9.95625 7.45625 9 8.05625C8.85625 8.14375 8.375 8.425 8.2875 8.475C8.0375 8.63125 7.96875 8.7125 7.96875 8.75V10C7.96875 10.1243 7.91936 10.2435 7.83146 10.3315C7.74355 10.4194 7.62432 10.4688 7.5 10.4688C7.37568 10.4688 7.25645 10.4194 7.16854 10.3315C7.08064 10.2435 7.03125 10.1243 7.03125 10V8.75C7.03125 8.2875 7.29375 7.9875 7.79375 7.675C7.9 7.60625 8.38125 7.33125 8.50625 7.25625C9.2125 6.8125 9.53125 6.375 9.53125 5.625C9.53125 5.08628 9.31724 4.56962 8.93631 4.18869C8.55538 3.80776 8.03872 3.59375 7.5 3.59375C6.96128 3.59375 6.44462 3.80776 6.06369 4.18869C5.68276 4.56962 5.46875 5.08628 5.46875 5.625C5.46875 5.74932 5.41936 5.86855 5.33146 5.95646C5.24355 6.04436 5.12432 6.09375 5 6.09375C4.87568 6.09375 4.75645 6.04436 4.66854 5.95646C4.58064 5.86855 4.53125 5.74932 4.53125 5.625C4.53125 4.83764 4.84403 4.08253 5.40078 3.52578C5.95753 2.96903 6.71264 2.65625 7.5 2.65625C8.28736 2.65625 9.04247 2.96903 9.59922 3.52578C10.156 4.08253 10.4688 4.83764 10.4688 5.625ZM8.125 11.875C8.125 12.0408 8.05915 12.1997 7.94194 12.3169C7.82473 12.4342 7.66576 12.5 7.5 12.5C7.33424 12.5 7.17527 12.4342 7.05806 12.3169C6.94085 12.1997 6.875 12.0408 6.875 11.875C6.875 11.7092 6.94085 11.5503 7.05806 11.4331C7.17527 11.3158 7.33424 11.25 7.5 11.25C7.66576 11.25 7.82473 11.3158 7.94194 11.4331C8.05915 11.5503 8.125 11.7092 8.125 11.875Z" fill="#484848"/>
</svg>
