<svg width="14" height="16" viewBox="0 0 14 16" fill="none" xmlns="http://www.w3.org/2000/svg">
<path d="M13.7857 9.21379C13.7857 6.37915 12.0381 3.94626 9.5643 2.93237L8.65819 4.18085C10.7705 4.87889 12.2996 6.87053 12.2996 9.21379C12.2996 12.1364 9.92185 14.5141 6.99926 14.5141C4.07667 14.5141 1.69896 12.1363 1.69896 9.21379C1.69896 6.87053 3.228 4.87892 5.3402 4.18085L4.43409 2.93237C1.96039 3.94623 0.212891 6.37915 0.212891 9.21379C0.212891 12.9558 3.25725 16.0001 6.99926 16.0001C10.7413 16.0001 13.7857 12.9558 13.7857 9.21379Z" fill="#B0B0B0"/>
<path d="M5.84951 4.04023L6.33084 4.70359L6.99845 4.65635L7.66602 4.70359L8.14735 4.04023L9.07991 2.75516L10.1687 1.25493L9.15076 0H6.99845H4.84613L3.82812 1.25493L4.91698 2.75516L5.84951 4.04023Z" fill="#B0B0B0"/>
</svg>
