<svg width="14" height="14" viewBox="0 0 14 14" fill="none" xmlns="http://www.w3.org/2000/svg">
<path d="M11.7594 7.6241C11.7834 7.4241 11.7994 7.2161 11.7994 7.0001C11.7994 6.7841 11.7834 6.5761 11.7514 6.3761L13.1034 5.3201C13.2234 5.2241 13.2554 5.0481 13.1834 4.9121L11.9034 2.6961C11.8234 2.5521 11.6554 2.5041 11.5114 2.5521L9.91942 3.1921C9.58342 2.9361 9.23142 2.7281 8.83942 2.5681L8.59942 0.872098C8.57542 0.712098 8.43942 0.600098 8.27942 0.600098H5.71942C5.55942 0.600098 5.43142 0.712098 5.40742 0.872098L5.16742 2.5681C4.77542 2.7281 4.41542 2.9441 4.08742 3.1921L2.49542 2.5521C2.35142 2.4961 2.18342 2.5521 2.10342 2.6961L0.82342 4.9121C0.74342 5.0561 0.77542 5.2241 0.90342 5.3201L2.25542 6.3761C2.22342 6.5761 2.19942 6.7921 2.19942 7.0001C2.19942 7.2081 2.21542 7.4241 2.24742 7.6241L0.89542 8.6801C0.77542 8.7761 0.74342 8.9521 0.81542 9.0881L2.09542 11.3041C2.17542 11.4481 2.34342 11.4961 2.48742 11.4481L4.07942 10.8081C4.41542 11.0641 4.76742 11.2721 5.15942 11.4321L5.39942 13.1281C5.43142 13.2881 5.55942 13.4001 5.71942 13.4001H8.27942C8.43942 13.4001 8.57542 13.2881 8.59142 13.1281L8.83142 11.4321C9.22342 11.2721 9.58342 11.0561 9.91142 10.8081L11.5034 11.4481C11.6474 11.5041 11.8154 11.4481 11.8954 11.3041L13.1754 9.0881C13.2554 8.9441 13.2234 8.7761 13.0954 8.6801L11.7594 7.6241ZM6.99942 9.4001C5.67942 9.4001 4.59942 8.3201 4.59942 7.0001C4.59942 5.6801 5.67942 4.6001 6.99942 4.6001C8.31942 4.6001 9.39942 5.6801 9.39942 7.0001C9.39942 8.3201 8.31942 9.4001 6.99942 9.4001Z" fill="#FBFBFB"/>
</svg>
