<svg width="14" height="16" viewBox="0 0 14 16" fill="none" xmlns="http://www.w3.org/2000/svg">
<path d="M1.5 2.5V2.707L3.5 4.707V6.293L1.232 8.56C0.7635 9.03 0.5 9.337 0.5 10V14.5C0.5 15.322 1.178 15.991 2 16C5.3225 15.994 7.3225 15.994 8 16C8.8285 16.007 9.5 15.5 9.5 14.5V10C9.5 9.3245 9.2265 8.937 8.742 8.4665L6.5 6.2885V4.5C6.50075 4.18337 6.60202 3.87516 6.78919 3.61978C6.97637 3.3644 7.23979 3.17505 7.5415 3.079C7.65462 3.96932 8.03263 4.80511 8.6265 5.478L9.376 4.816C8.92533 4.3056 8.63431 3.67419 8.539 3H10.5V0H4C3.33696 0 2.70107 0.263392 2.23223 0.732233C1.76339 1.20107 1.5 1.83696 1.5 2.5ZM8.5 1H9.5V2H8.5V1ZM7.984 12.343H7.986C8.16 12.343 8.331 12.326 8.5 12.301V13.311C8.33 13.3305 8.159 13.343 7.986 13.343H7.984C7.393 13.3444 6.80759 13.2286 6.2616 13.0023C5.71561 12.7761 5.21986 12.4439 4.803 12.025C4.47901 11.699 4.09355 11.4406 3.66896 11.2646C3.24438 11.0887 2.7891 10.9987 2.3295 11H2.328C2.04894 11.0012 1.77101 11.0354 1.5 11.102V10.078C1.77 10.028 2.0465 10 2.3275 10H2.33C2.92086 9.99862 3.50613 10.1144 4.05196 10.3406C4.59779 10.5668 5.09336 10.899 5.51 11.318C5.83419 11.6439 6.21975 11.9022 6.64439 12.0782C7.06904 12.2541 7.52435 12.3441 7.984 12.343ZM4.5 5H5.5V6H4.5V5ZM13 0.5C13 0.367392 13.0527 0.240215 13.1464 0.146447C13.2402 0.0526784 13.3674 0 13.5 0C13.6326 0 13.7598 0.0526784 13.8536 0.146447C13.9473 0.240215 14 0.367392 14 0.5C14 0.632608 13.9473 0.759785 13.8536 0.853553C13.7598 0.947322 13.6326 1 13.5 1C13.3674 1 13.2402 0.947322 13.1464 0.853553C13.0527 0.759785 13 0.632608 13 0.5ZM14 2.5C14 2.63261 13.9473 2.75979 13.8536 2.85355C13.7598 2.94732 13.6326 3 13.5 3C13.3674 3 13.2402 2.94732 13.1464 2.85355C13.0527 2.75979 13 2.63261 13 2.5C13 2.36739 13.0527 2.24021 13.1464 2.14645C13.2402 2.05268 13.3674 2 13.5 2C13.6326 2 13.7598 2.05268 13.8536 2.14645C13.9473 2.24021 14 2.36739 14 2.5ZM12.5 1.5C12.5 1.63261 12.4473 1.75979 12.3536 1.85355C12.2598 1.94732 12.1326 2 12 2C11.8674 2 11.7402 1.94732 11.6464 1.85355C11.5527 1.75979 11.5 1.63261 11.5 1.5C11.5 1.36739 11.5527 1.24021 11.6464 1.14645C11.7402 1.05268 11.8674 1 12 1C12.1326 1 12.2598 1.05268 12.3536 1.14645C12.4473 1.24021 12.5 1.36739 12.5 1.5Z" fill="#4A68F6"/>
</svg>
