<svg width="24" height="38" viewBox="0 0 24 38" fill="none" xmlns="http://www.w3.org/2000/svg">
<path d="M13.2901 33.2284V20.2276C19.5478 19.5269 24 14.4036 24 8.55942C24 6.35015 23.3726 3.60227 22.2852 0.938413C22.0542 0.371882 21.4925 0 20.8691 0H3.12087C2.49699 0 1.93541 0.371882 1.70464 0.938489C0.722875 3.34371 -0.0398915 6.1789 0.00161688 8.79512C0.00161688 8.79757 0.00232328 8.80003 0.00232328 8.8024C0.123161 14.5663 4.53875 19.5548 10.699 20.2276V33.2284C6.62044 33.5548 3.49405 35.3275 3.49405 36.2187C3.49405 37.2034 7.29972 38 11.9951 38C16.6904 38 20.4965 37.2034 20.4965 36.2187C20.4965 35.3275 17.3691 33.5545 13.2901 33.2284ZM3.8539 2.53351H20.1357C20.9487 4.70135 21.409 6.86612 21.409 8.5595C21.409 8.97066 21.3716 9.37354 21.318 9.77112C20.5079 9.57371 19.6682 9.54763 18.7675 9.86112C16.4153 10.68 14.8904 11.2045 12.4974 10.2869C10.1179 9.37377 8.61426 5.22614 5.76093 5.54171C4.62734 5.66646 3.65475 6.03105 2.7768 6.53751C2.98049 5.28077 3.33594 3.91508 3.8539 2.53351Z" fill="#4A68F6"/>
</svg>
