<svg width="24" height="24" viewBox="0 0 24 24" fill="none" xmlns="http://www.w3.org/2000/svg">
<path d="M12.747 11.3888L15.3998 9.8985C16.8473 9.087 18.2498 8.304 19.6073 7.5495C20.004 7.329 20.25 6.9105 20.25 6.45675V2.001C20.25 1.311 19.6905 0.75 18.9998 0.75H5.00025C4.66865 0.750397 4.35077 0.88235 4.11636 1.11689C3.88196 1.35144 3.7502 1.6694 3.75 2.001V6.456C3.75 6.9105 3.996 7.329 4.39275 7.5495L6.885 8.9385C8.34314 9.75353 9.79989 10.571 11.2552 11.391C11.7758 11.6835 12.225 11.6835 12.747 11.3888ZM12.0112 10.0822L12.0007 10.0905L11.991 10.083L9.3345 8.5905C8.4645 8.103 7.611 7.62525 6.774 7.158L5.25 6.3105V2.2515H18.75V6.3105L16.3837 7.629C14.9249 8.44406 13.4674 9.26157 12.0112 10.0815V10.0822ZM12 12.75C11.3106 12.75 10.6279 12.8858 9.99091 13.1496C9.35395 13.4135 8.7752 13.8002 8.28769 14.2877C7.80018 14.7752 7.41347 15.354 7.14963 15.9909C6.8858 16.6279 6.75 17.3106 6.75 18C6.75 18.6894 6.8858 19.3721 7.14963 20.0091C7.41347 20.646 7.80018 21.2248 8.28769 21.7123C8.7752 22.1998 9.35395 22.5865 9.99091 22.8504C10.6279 23.1142 11.3106 23.25 12 23.25C13.3924 23.25 14.7277 22.6969 15.7123 21.7123C16.6969 20.7277 17.25 19.3924 17.25 18C17.25 16.6076 16.6969 15.2723 15.7123 14.2877C14.7277 13.3031 13.3924 12.75 12 12.75ZM12 14.25C12.9946 14.25 13.9484 14.6451 14.6517 15.3483C15.3549 16.0516 15.75 17.0054 15.75 18C15.75 18.9946 15.3549 19.9484 14.6517 20.6516C13.9484 21.3549 12.9946 21.75 12 21.75C11.0054 21.75 10.0516 21.3549 9.34835 20.6516C8.64509 19.9484 8.25 18.9946 8.25 18C8.25 17.0054 8.64509 16.0516 9.34835 15.3483C10.0516 14.6451 11.0054 14.25 12 14.25Z" fill="black"/>
</svg>
