<svg width="24" height="24" viewBox="0 0 24 24" fill="none" xmlns="http://www.w3.org/2000/svg">
<path d="M12 0.598511L12.4163 0.876011C15.2985 2.79751 18.156 3.75001 21 3.75001H21.75V13.125C21.75 19.1805 17.4075 23.25 12 23.25C6.5925 23.25 2.25 19.1805 2.25 13.125V3.75001H3C5.844 3.75001 8.7015 2.79751 11.5837 0.876011L12 0.598511ZM12 2.39401L11.7472 2.55376C9.18375 4.14001 6.60375 5.02951 4.014 5.21401L3.75 5.22901V13.125C3.75 18.2483 7.287 21.6428 11.7847 21.7478L12 21.75C16.5997 21.75 20.25 18.33 20.25 13.125V5.22901L19.986 5.21401C17.3963 5.02951 14.8162 4.14001 12.2528 2.55376L12 2.39401ZM17.25 7.93951L18.3105 9.00001L10.125 17.1855L5.6895 12.75L6.75 11.6895L10.125 15.0638L17.25 7.93876V7.93951Z" fill="#4A68F6"/>
</svg>
