<svg width="24" height="24" viewBox="0 0 24 24" fill="none" xmlns="http://www.w3.org/2000/svg">
<path d="M11.2479 0.774004C10.9803 0.92826 10.7668 1.16138 10.6367 1.4415L7.93217 7.266L1.46267 8.1C1.26725 8.12518 1.0787 8.1886 0.907792 8.28666C0.736887 8.38472 0.586976 8.5155 0.466624 8.67151C0.346271 8.82752 0.257836 9.00572 0.206369 9.19592C0.154903 9.38612 0.141414 9.58459 0.166673 9.78L0.189923 9.91125C0.257628 10.2167 0.419167 10.4934 0.651923 10.7025L5.42192 14.997L4.13492 21.453C4.05723 21.8431 4.13763 22.248 4.35844 22.5788C4.57925 22.9096 4.9224 23.1392 5.31242 23.217L5.44742 23.238C5.76409 23.2716 6.08324 23.2036 6.35867 23.0438L11.9979 19.7753L17.6379 23.0438C17.8084 23.1426 17.9966 23.207 18.1919 23.2331C18.3872 23.2592 18.5857 23.2466 18.7761 23.1959C18.9665 23.1453 19.1451 23.0576 19.3017 22.938C19.4582 22.8183 19.5896 22.669 19.6884 22.4985L19.7514 22.377C19.8852 22.0885 19.9238 21.7649 19.8617 21.453L18.5739 14.997L23.3447 10.7025C23.4911 10.5707 23.6101 10.4113 23.695 10.2335C23.7798 10.0557 23.8288 9.86288 23.8391 9.66612C23.8494 9.46937 23.8208 9.27251 23.755 9.0868C23.6893 8.90108 23.5875 8.73015 23.4557 8.58375L23.3619 8.4885C23.1329 8.27583 22.8432 8.14 22.5332 8.1L16.0629 7.26525L13.3584 1.4415C13.1908 1.08083 12.8868 0.801492 12.5132 0.664926C12.1397 0.52836 11.7272 0.545743 11.3664 0.713254L11.2479 0.774004ZM8.94542 8.64825L11.9979 2.07375L15.0504 8.64825L22.3404 9.58725L16.9359 14.454L18.3894 21.7463L11.9972 18.0413L5.60567 21.7463L7.05992 14.454L1.65467 9.58725L8.94542 8.64825Z" fill="#FFB400"/>
</svg>
