<svg id="Capa_1" enable-background="new 0 0 512 512" height="512" viewBox="0 0 512 512" width="512" xmlns="http://www.w3.org/2000/svg"><g><path d="m437.02 74.98c-48.353-48.351-112.64-74.98-181.02-74.98s-132.667 26.629-181.02 74.98c-48.351 48.353-74.98 112.64-74.98 181.02s26.629 132.667 74.98 181.02c48.353 48.351 112.64 74.98 181.02 74.98s132.667-26.629 181.02-74.98c48.351-48.353 74.98-112.64 74.98-181.02s-26.629-132.667-74.98-181.02zm-181.02 407.02c-124.617 0-226-101.383-226-226s101.383-226 226-226 226 101.383 226 226-101.383 226-226 226z"/><path d="m237.954 199.117c0-39.637-32.247-71.883-71.883-71.883s-71.883 32.247-71.883 71.883h30c0-23.095 18.789-41.883 41.883-41.883s41.883 18.789 41.883 41.883-18.789 41.883-41.883 41.883v30c23.094 0 41.883 18.789 41.883 41.883 0 23.095-18.789 41.883-41.883 41.883s-41.883-18.789-41.883-41.883h-30c0 39.637 32.247 71.883 71.883 71.883s71.883-32.247 71.883-71.883c0-23.128-10.99-43.725-28.01-56.883 17.019-13.158 28.01-33.755 28.01-56.883z"/><path d="m340.445 127.234c-42.66 0-77.367 34.707-77.367 77.368v102.797c0 42.661 34.707 77.368 77.367 77.368s77.367-34.707 77.367-77.368v-102.797c0-42.661-34.707-77.368-77.367-77.368zm47.367 180.164c0 26.119-21.249 47.368-47.367 47.368s-47.367-21.249-47.367-47.368v-102.796c0-26.119 21.249-47.368 47.367-47.368s47.367 21.249 47.367 47.368z"/></g></svg>