<svg width="20" height="20" viewBox="0 0 20 20" fill="none" xmlns="http://www.w3.org/2000/svg">
<g clip-path="url(#clip0)">
<path d="M11.0835 1.75C11.4501 1.24328 11.9239 0.823699 12.4713 0.521199C13.0187 0.218699 13.6261 0.0407339 14.2502 0C14.3046 0.56793 14.2441 1.141 14.0723 1.68505C13.9004 2.22909 13.6209 2.73298 13.2502 3.16667C12.9116 3.6382 12.4585 4.01571 11.9337 4.26357C11.4088 4.51143 10.8294 4.62148 10.2502 4.58333C10.1901 4.07925 10.2329 3.5682 10.3762 3.08118C10.5194 2.59415 10.76 2.14127 11.0835 1.75ZM6.91683 4.83333C4.5835 4.83333 2.0835 6.91667 2.0835 10.9167C2.0835 15 5.00016 20 7.3335 20C8.16683 20 9.41683 19.1667 10.6668 19.1667C11.9168 19.1667 12.8335 19.9167 14.0002 19.9167C16.5835 19.9167 18.4168 14.5833 18.4168 14.5833C17.6205 14.2397 16.943 13.6693 16.4688 12.9431C15.9946 12.217 15.7446 11.3673 15.7502 10.5C15.7507 9.73981 15.9511 8.99313 16.3314 8.33491C16.7117 7.67669 17.2585 7.13009 17.9168 6.75C17.4896 6.1094 16.9052 5.58913 16.2195 5.23896C15.5337 4.88879 14.7696 4.72043 14.0002 4.75C12.3335 4.75 11.0835 5.66667 10.4168 5.66667C9.66683 5.66667 8.41683 4.83333 6.91683 4.83333Z" fill="black"/>
</g>
<defs>
<clipPath id="clip0">
<rect width="20" height="20" fill="white"/>
</clipPath>
</defs>
</svg>
