<svg width="16" height="15" viewBox="0 0 16 15" fill="none" xmlns="http://www.w3.org/2000/svg">
<path d="M7.51837 1.15726C7.66804 0.696603 8.31975 0.696604 8.46942 1.15726L9.78886 5.21805C9.85579 5.42407 10.0478 5.56355 10.2644 5.56355H14.5342C15.0185 5.56355 15.2199 6.18335 14.828 6.46805L11.3737 8.97776C11.1985 9.10509 11.1252 9.33077 11.1921 9.53678L12.5115 13.5976C12.6612 14.0582 12.134 14.4413 11.7421 14.1566L8.28779 11.6469C8.11254 11.5196 7.87525 11.5196 7.7 11.6469L4.24568 14.1566C3.85383 14.4413 3.32659 14.0582 3.47626 13.5976L4.7957 9.53678C4.86263 9.33077 4.7893 9.10509 4.61406 8.97776L1.15974 6.46805C0.767884 6.18335 0.969272 5.56355 1.45363 5.56355H5.72341C5.94002 5.56355 6.132 5.42407 6.19894 5.21805L7.51837 1.15726Z" fill="#B0B0B0"/>
</svg>
