<svg width="20" height="18" viewBox="0 0 20 18" fill="none" xmlns="http://www.w3.org/2000/svg">
<path d="M13.7909 9.125L19.4767 4.14993C20.1744 3.53942 20.1744 2.54957 19.4767 1.93857L18.2131 0.832884C17.5153 0.222372 16.3841 0.222372 15.6858 0.832884L10 5.80795L4.3142 0.832884C3.61648 0.222372 2.48523 0.222372 1.78693 0.832884L0.523295 1.93857C-0.174432 2.54908 -0.174432 3.53892 0.523295 4.14993L6.20909 9.125L0.523295 14.1001C-0.174432 14.7106 -0.174432 15.7004 0.523295 16.3114L1.78693 17.4171C2.48466 18.0276 3.61648 18.0276 4.3142 17.4171L10 12.442L15.6858 17.4171C16.3835 18.0276 17.5153 18.0276 18.2131 17.4171L19.4767 16.3114C20.1744 15.7009 20.1744 14.7111 19.4767 14.1001L13.7909 9.125Z" fill="black"/>
</svg>
