<svg width="20" height="19" viewBox="0 0 20 19" fill="none" xmlns="http://www.w3.org/2000/svg">
<path d="M13.7909 9.5L19.4767 4.61377C20.1744 4.01416 20.1744 3.04199 19.4767 2.44189L18.2131 1.35596C17.5153 0.756348 16.3841 0.756348 15.6858 1.35596L10 6.24219L4.3142 1.35596C3.61648 0.756348 2.48523 0.756348 1.78693 1.35596L0.523295 2.44189C-0.174432 3.0415 -0.174432 4.01367 0.523295 4.61377L6.20909 9.5L0.523295 14.3862C-0.174432 14.9858 -0.174432 15.958 0.523295 16.5581L1.78693 17.644C2.48466 18.2437 3.61648 18.2437 4.3142 17.644L10 12.7578L15.6858 17.644C16.3835 18.2437 17.5153 18.2437 18.2131 17.644L19.4767 16.5581C20.1744 15.9585 20.1744 14.9863 19.4767 14.3862L13.7909 9.5Z" fill="white"/>
</svg>
